<svg width="0" height="0" class="hidden">
  <symbol xmlns="http://www.w3.org/2000/svg" viewBox="0 0 30 30" id="icons8-linkedin">
    <path d="M9,25H4V10h5V25z M6.501,8C5.118,8,4,6.879,4,5.499S5.12,3,6.501,3C7.879,3,9,4.121,9,5.499C9,6.879,7.879,8,6.501,8z M27,25h-4.807v-7.3c0-1.741-0.033-3.98-2.499-3.98c-2.503,0-2.888,1.896-2.888,3.854V25H12V9.989h4.614v2.051h0.065 c0.642-1.18,2.211-2.424,4.551-2.424c4.87,0,5.77,3.109,5.77,7.151C27,16.767,27,25,27,25z"></path>
  </symbol>
  <symbol xmlns="http://www.w3.org/2000/svg" viewBox="0 0 50 50" id="icons8-twitter">
    <path d="M 5.9199219 6 L 20.582031 27.375 L 6.2304688 44 L 9.4101562 44 L 21.986328 29.421875 L 31.986328 44 L 44 44 L 28.681641 21.669922 L 42.199219 6 L 39.029297 6 L 27.275391 19.617188 L 17.933594 6 L 5.9199219 6 z M 9.7167969 8 L 16.880859 8 L 40.203125 42 L 33.039062 42 L 9.7167969 8 z"></path>
  </symbol>
  <symbol xmlns="http://www.w3.org/2000/svg" viewBox="0 0 24 24" id="icons8-instagram">
    <path d="M 8 3 C 5.243 3 3 5.243 3 8 L 3 16 C 3 18.757 5.243 21 8 21 L 16 21 C 18.757 21 21 18.757 21 16 L 21 8 C 21 5.243 18.757 3 16 3 L 8 3 z M 8 5 L 16 5 C 17.654 5 19 6.346 19 8 L 19 16 C 19 17.654 17.654 19 16 19 L 8 19 C 6.346 19 5 17.654 5 16 L 5 8 C 5 6.346 6.346 5 8 5 z M 17 6 A 1 1 0 0 0 16 7 A 1 1 0 0 0 17 8 A 1 1 0 0 0 18 7 A 1 1 0 0 0 17 6 z M 12 7 C 9.243 7 7 9.243 7 12 C 7 14.757 9.243 17 12 17 C 14.757 17 17 14.757 17 12 C 17 9.243 14.757 7 12 7 z M 12 9 C 13.654 9 15 10.346 15 12 C 15 13.654 13.654 15 12 15 C 10.346 15 9 13.654 9 12 C 9 10.346 10.346 9 12 9 z"></path>
  </symbol>
  <symbol xmlns="http://www.w3.org/2000/svg" viewBox="0 0 24 24" id="icons8-facebook (1)">
    <path d="M17.525,9H14V7c0-1.032,0.084-1.682,1.563-1.682h1.868v-3.18C16.522,2.044,15.608,1.998,14.693,2 C11.98,2,10,3.657,10,6.699V9H7v4l3-0.001V22h4v-9.003l3.066-0.001L17.525,9z"></path>
  </symbol>
  <symbol xmlns="http://www.w3.org/2000/svg" viewBox="0 0 30 30" id="icons8-youtube">
    <path d="M 15 4 C 10.814 4 5.3808594 5.0488281 5.3808594 5.0488281 L 5.3671875 5.0644531 C 3.4606632 5.3693645 2 7.0076245 2 9 L 2 15 L 2 15.001953 L 2 21 L 2 21.001953 A 4 4 0 0 0 5.3769531 24.945312 L 5.3808594 24.951172 C 5.3808594 24.951172 10.814 26.001953 15 26.001953 C 19.186 26.001953 24.619141 24.951172 24.619141 24.951172 L 24.621094 24.949219 A 4 4 0 0 0 28 21.001953 L 28 21 L 28 15.001953 L 28 15 L 28 9 A 4 4 0 0 0 24.623047 5.0546875 L 24.619141 5.0488281 C 24.619141 5.0488281 19.186 4 15 4 z M 12 10.398438 L 20 15 L 12 19.601562 L 12 10.398438 z"></path>
  </symbol>
</svg>